<svg xmlns="http://www.w3.org/2000/svg" width="322.256" height="60.239" viewBox="0 0 322.256 60.239">
  <g id="Group_3" data-name="Group 3" transform="translate(-7.016 12.037)">
    <g id="Group_2" data-name="Group 2" transform="translate(7.053 -11.808)">
      <g id="Group_1" data-name="Group 1" transform="translate(12.883 5.697)">
        <path id="Path_1" data-name="Path 1" d="M206.4,285.529v-.271a143.93,143.93,0,0,0,17.469-1.516v1.787Zm6.747-4.241a5.366,5.366,0,0,0,.456-2.368V234.2h-7.2v-2.484h23.237l9.452,31.074,10.031-31.074h22.064V234.2h-7v26.631a117.412,117.412,0,0,1-13.246,7.842V234.889h-.166l-12.336,39.3q-4.351,1.655-8.91,3.048l-13.112-42.873v44.307a8.222,8.222,0,0,0,.193,1.907q-1.72.37-3.463.709Zm51.041-12.283a89.449,89.449,0,0,1-13.246,7.134v6.74h-7.286v2.649h27.321V282.88h-6.789V269.005Zm-27.951,12.2q-2.525.663-5.121,1.219l.949,3.1h2.815Z" transform="translate(-206.399 -231.715)" fill="#f36a10" fill-rule="evenodd"/>
        <path id="Path_2" data-name="Path 2" d="M374.709,285.529V282.88h6.458v-9.633a86.962,86.962,0,0,0,13.66-8.891V282.88h7.865v2.649Zm6.458-20.137a113.935,113.935,0,0,0,13.7-9.354l-.041-21.839h8.265q6.313,0,9.617,2.953.236.209.465.441,2.242-2.847,4.337-5.878H374.543V234.2h6.623v31.193Zm39.2-32.983.462,14.954h-2.815a30.965,30.965,0,0,0-2.461-6.457q2.538-4.048,4.814-8.5Zm-11.378,17.773a90.418,90.418,0,0,1-8.635,9.388,7.237,7.237,0,0,1,3.157,1.895c1.532,1.615,2.456,4.278,2.746,8h2.732Z" transform="translate(-330.595 -231.715)" fill="#f36a10" fill-rule="evenodd"/>
      </g>
      <path id="Path_3" data-name="Path 3" d="M268.043,177.233c-17.056,46.044-56.15,62.8-110.935,58.711C209.745,233.615,247.783,215.211,268.043,177.233Z" transform="translate(-157.108 -177.233)" fill="#f36a10" stroke="#f36a10" stroke-miterlimit="2.613" stroke-width="0.216" fill-rule="evenodd"/>
      <path id="Path_4" data-name="Path 4" d="M242.293,215.191a78.171,78.171,0,0,0,6.087-5.678,81.54,81.54,0,0,0,7.8-9.432q1.944-2.741,3.721-5.706a102.606,102.606,0,0,0,8.142-17.142,105.487,105.487,0,0,1-8.283,13.14l-.259.348c-21.583,28.892-56.419,43.189-102.394,45.223q6.595.492,12.883.578a168.3,168.3,0,0,0,17.469-.638q3.868-.352,7.591-.9,2.172-.318,4.3-.7a110.126,110.126,0,0,0,15.187-3.849q3.083-1.029,6.029-2.238,3.719-1.527,7.217-3.346,3.324-1.73,6.444-3.73A78.767,78.767,0,0,0,242.293,215.191Z" transform="translate(-157.108 -177.233)" fill="#ddc6c6" stroke="#1a1818" stroke-miterlimit="2.613" stroke-width="0.5" fill-rule="evenodd"/>
      <path id="Path_5" data-name="Path 5" d="M234.223,221.138a78.791,78.791,0,0,0,8.07-5.931,6.185,6.185,0,0,1,.609.493c1.532,1.412,2.456,3.74,2.746,7h2.732V209.526a81.565,81.565,0,0,0,7.8-9.436,30.174,30.174,0,0,1,1.224,3.278h2.815l-.317-8.986a102.671,102.671,0,0,0,8.142-17.149,105.538,105.538,0,0,1-8.283,13.145l-.259.348c-21.583,28.9-56.419,43.208-102.394,45.243q6.595.493,12.883.578v.2H187.46v-.835q3.868-.352,7.591-.9l.606,1.732h2.815l.875-2.436a110.062,110.062,0,0,0,15.187-3.851v3.971h-7.286v2.317h34.841v-2.317h-7.865Z" transform="translate(-157.108 -177.233)" fill="#fff" stroke="#f36a10" stroke-miterlimit="2.613" stroke-width="0.5" fill-rule="evenodd"/>
      <path id="Path_6" data-name="Path 6" d="M157.561,236q6.358.462,12.43.545v.2H187.46v-.835q3.868-.352,7.591-.9l.606,1.732h2.815l.875-2.436a110.062,110.062,0,0,0,15.187-3.851v3.971h-7.286v2.317h34.841v-2.317h-7.865V221.138a78.791,78.791,0,0,0,8.07-5.931,6.185,6.185,0,0,1,.609.493c1.532,1.412,2.456,3.74,2.746,7h2.732V209.526a81.565,81.565,0,0,0,7.8-9.436,30.174,30.174,0,0,1,1.224,3.278h2.815l-.317-8.986a102.671,102.671,0,0,0,8.142-17.149,98.851,98.851,0,0,1-8.274,13.4q-.525.714-1.061,1.416c-21.291,27.863-56.386,41.93-101.491,43.92l-.109,0Z" transform="translate(-157.108 -177.233)" fill="#f8800b" stroke="#f8800b" stroke-width="1" fill-rule="evenodd"/>
    </g>
    <text id="MORTFUND" transform="translate(123.272 32.979)" fill="#1a1818" font-size="40" font-family="Bahnschrift"><tspan x="0" y="0">MORTFUND</tspan></text>
  </g>
</svg>
