<svg xmlns="http://www.w3.org/2000/svg" width="83.272" height="49.665" viewBox="0 0 83.272 49.665">
  <g id="Group_1" data-name="Group 1" transform="translate(0 0)">
    <path id="Path_1" data-name="Path 1" d="M206.4,281.38v-.25a132.837,132.837,0,0,0,16.122-1.4v1.649Zm6.227-3.914a4.952,4.952,0,0,0,.42-2.186V234.007H206.4v-2.292h21.445l8.723,28.678,9.258-28.678h20.363v2.292h-6.457v24.578a108.367,108.367,0,0,1-12.225,7.237V234.644h-.153l-11.385,36.271q-4.016,1.527-8.223,2.813l-12.1-39.568v40.891a7.587,7.587,0,0,0,.178,1.76q-1.587.341-3.2.655Zm47.106-11.336a82.554,82.554,0,0,1-12.225,6.584v6.221h-6.724v2.445H266v-2.445h-6.265v-12.8Zm-25.8,11.261q-2.331.612-4.726,1.125l.876,2.865h2.6Z" transform="translate(-206.399 -231.715)" fill="#f36a10" fill-rule="evenodd"/>
    <path id="Path_2" data-name="Path 2" d="M374.7,281.38v-2.445h5.96v-8.891a80.255,80.255,0,0,0,12.607-8.205v17.1h7.259v2.445Zm5.96-18.585a105.146,105.146,0,0,0,12.645-8.633l-.038-20.155h7.628q5.826,0,8.876,2.725.218.193.43.407,2.069-2.628,4-5.425H374.543v2.292h6.113V262.8Zm36.174-30.44.426,13.8h-2.6a28.578,28.578,0,0,0-2.271-5.959q2.343-3.736,4.443-7.842Zm-10.5,16.4a83.448,83.448,0,0,1-7.969,8.664,6.679,6.679,0,0,1,2.914,1.749c1.413,1.49,2.267,3.948,2.534,7.386h2.521Z" transform="translate(-333.983 -231.715)" fill="#f36a10" fill-rule="evenodd"/>
  </g>
</svg>
