<svg xmlns="http://www.w3.org/2000/svg" width="96" height="96" viewBox="0 0 96 96">
  <g id="Group_171" data-name="Group 171" transform="translate(0.138 0.162)">
    <rect id="Rectangle_50" data-name="Rectangle 50" width="96" height="96" rx="18" transform="translate(-0.138 -0.162)" fill="#f8800b"/>
    <path id="Icon_metro-dollar2" data-name="Icon metro-dollar2" d="M41.224,41.914a12.749,12.749,0,0,1-3.334,8.83,14.391,14.391,0,0,1-8.663,4.574v5.864a1.032,1.032,0,0,1-1.072,1.072H23.631a1.087,1.087,0,0,1-1.072-1.072V55.319a21.123,21.123,0,0,1-4.273-1.039,22.5,22.5,0,0,1-3.4-1.491A22.57,22.57,0,0,1,12.4,51.18a19.1,19.1,0,0,1-1.558-1.257q-.419-.4-.586-.6a1.018,1.018,0,0,1-.067-1.374l3.452-4.524a1.043,1.043,0,0,1,.771-.4.83.83,0,0,1,.8.3l.067.067a17.5,17.5,0,0,0,8.143,4.189,11.705,11.705,0,0,0,2.48.268A8.125,8.125,0,0,0,30.685,46.4a4.694,4.694,0,0,0,2.061-4.088,3.4,3.4,0,0,0-.5-1.776,6.279,6.279,0,0,0-1.123-1.407,9.2,9.2,0,0,0-1.96-1.257q-1.34-.687-2.212-1.072t-2.681-1.089q-1.307-.536-2.061-.838t-2.061-.888q-1.307-.586-2.094-1.039t-1.893-1.19a11.8,11.8,0,0,1-1.793-1.424,20.885,20.885,0,0,1-1.458-1.642,8.2,8.2,0,0,1-1.19-1.944,13.441,13.441,0,0,1-.7-2.228,11.631,11.631,0,0,1-.285-2.614,11.458,11.458,0,0,1,3.284-8.11,15.334,15.334,0,0,1,8.545-4.49V3.276A1.087,1.087,0,0,1,23.631,2.2h4.524a1.033,1.033,0,0,1,1.072,1.072v5.9a18.64,18.64,0,0,1,3.7.771,21.47,21.47,0,0,1,2.915,1.123,16.146,16.146,0,0,1,2.128,1.257q1.005.7,1.307.972t.5.469a.97.97,0,0,1,.168,1.273l-2.714,4.893a.913.913,0,0,1-.771.536,1.068,1.068,0,0,1-.9-.235q-.1-.1-.486-.4t-1.307-.888a17.293,17.293,0,0,0-1.96-1.072,14.967,14.967,0,0,0-2.5-.871,11.18,11.18,0,0,0-2.865-.385,8.709,8.709,0,0,0-5.194,1.441,4.5,4.5,0,0,0-1.726,5.328,3.772,3.772,0,0,0,.989,1.391,14.768,14.768,0,0,0,1.324,1.106,11.8,11.8,0,0,0,1.877,1.039q1.257.586,2.027.9t2.346.922q1.776.67,2.714,1.056t2.547,1.173a20.245,20.245,0,0,1,2.53,1.424,21.4,21.4,0,0,1,2.078,1.676A8.676,8.676,0,0,1,39.733,36.2a12.144,12.144,0,0,1,1.056,2.564,11.055,11.055,0,0,1,.436,3.15Z" transform="translate(22.499 15.393)" fill="#fff"/>
  </g>
</svg>
