<svg xmlns="http://www.w3.org/2000/svg" width="96" height="96" viewBox="0 0 96 96">
  <g id="Group_338" data-name="Group 338" transform="translate(-51.744 -47.051)">
    <rect id="Rectangle_50" data-name="Rectangle 50" width="96" height="96" rx="18" transform="translate(51.744 47.051)" fill="#f8800b"/>
    <path id="Icon_awesome-hourglass-end" data-name="Icon awesome-hourglass-end" d="M37.113,6.6a2.474,2.474,0,0,0,2.474-2.474V2.474A2.474,2.474,0,0,0,37.113,0H2.474A2.474,2.474,0,0,0,0,2.474V4.124A2.474,2.474,0,0,0,2.474,6.6c0,9.378,5.259,17.292,12.458,19.794-7.2,2.5-12.458,10.416-12.458,19.794A2.474,2.474,0,0,0,0,48.66v1.649a2.474,2.474,0,0,0,2.474,2.474H37.113a2.474,2.474,0,0,0,2.474-2.474V48.66a2.474,2.474,0,0,0-2.474-2.474c0-9.378-5.259-17.292-12.458-19.794C31.854,23.89,37.113,15.976,37.113,6.6ZM19.794,21.443c-5.957,0-10.722-6.858-10.722-14.845H30.515C30.515,14.634,25.721,21.443,19.794,21.443Z" transform="translate(80.08 68.913)" fill="#fff"/>
  </g>
</svg>
