<svg xmlns="http://www.w3.org/2000/svg" xmlns:xlink="http://www.w3.org/1999/xlink" width="34.123" height="25.592" viewBox="0 0 34.123 25.592">
  <defs>
    <clipPath id="clip-path">
      <rect width="34.123" height="25.592" fill="none"/>
    </clipPath>
  </defs>
  <g id="Repeat_Grid_1" data-name="Repeat Grid 1" clip-path="url(#clip-path)">
    <g transform="translate(-197.189 -1081.5)">
      <path id="Icon_awesome-envelope" data-name="Icon awesome-envelope" d="M33.476,12.951a.4.4,0,0,1,.646.313V26.893a3.2,3.2,0,0,1-3.2,3.2H3.2a3.2,3.2,0,0,1-3.2-3.2V13.271a.4.4,0,0,1,.646-.313c1.493,1.16,3.472,2.633,10.27,7.571,1.406,1.026,3.779,3.186,6.145,3.172,2.379.02,4.8-2.186,6.151-3.172C30.011,15.59,31.983,14.11,33.476,12.951ZM17.061,21.561c1.546.027,3.772-1.946,4.892-2.759,8.844-6.418,9.517-6.978,11.556-8.577a1.6,1.6,0,0,0,.613-1.26V7.7a3.2,3.2,0,0,0-3.2-3.2H3.2A3.2,3.2,0,0,0,0,7.7V8.965a1.6,1.6,0,0,0,.613,1.26C2.653,11.818,3.326,12.384,12.17,18.8,13.289,19.615,15.515,21.588,17.061,21.561Z" transform="translate(197.189 1077)" fill="#002c58" opacity="0.99"/>
    </g>
  </g>
</svg>
