<svg xmlns="http://www.w3.org/2000/svg" width="35.949" height="35.947" viewBox="0 0 35.949 35.947">
  <path id="Icon_ionic-ios-call" data-name="Icon ionic-ios-call" d="M39.4,32.649a30.2,30.2,0,0,0-6.308-4.221c-1.89-.908-2.583-.889-3.921.075-1.114.8-1.834,1.553-3.116,1.273s-3.809-2.19-6.261-4.632-4.361-4.979-4.632-6.261.477-2,1.273-3.116c.964-1.338.992-2.031.075-3.921A29.6,29.6,0,0,0,12.29,5.538c-1.376-1.376-1.685-1.076-2.443-.8A13.9,13.9,0,0,0,7.61,5.922,6.747,6.747,0,0,0,4.924,8.757c-.533,1.151-1.151,3.294,1.993,8.891A49.608,49.608,0,0,0,15.64,29.28h0l.009.009.009.009h0a49.8,49.8,0,0,0,11.633,8.722c5.6,3.144,7.739,2.527,8.891,1.993a6.632,6.632,0,0,0,2.836-2.686,13.9,13.9,0,0,0,1.189-2.237C40.477,34.334,40.786,34.025,39.4,32.649Z" transform="translate(-4.49 -4.502)" fill="#002c58" opacity="0.99"/>
</svg>
