<svg xmlns="http://www.w3.org/2000/svg" width="118.729" height="101.768" viewBox="0 0 118.729 101.768">
  <g id="Icon_ionic-md-camera" data-name="Icon ionic-md-camera" transform="translate(-2.25 -4.5)">
    <path id="Path_58" data-name="Path 58" d="M46.963,31.954a16.7,16.7,0,1,1-16.7-16.7,16.7,16.7,0,0,1,16.7,16.7Z" transform="translate(31.348 29.79)" fill="#fff"/>
    <path id="Path_59" data-name="Path 59" d="M110.378,12.981H87.057L78.576,4.5H44.653l-8.481,8.481H12.851a10.6,10.6,0,0,0-10.6,10.6V95.667a10.6,10.6,0,0,0,10.6,10.6h97.527a10.6,10.6,0,0,0,10.6-10.6V23.581A10.6,10.6,0,0,0,110.378,12.981ZM61.615,91.427A29.682,29.682,0,1,1,91.3,61.744,29.683,29.683,0,0,1,61.615,91.427Z" fill="#fff"/>
  </g>
</svg>
