<svg id="Icon_awesome-file-upload-mini" data-name="Icon awesome-file-upload-mini" xmlns="http://www.w3.org/2000/svg" width="53.56" height="71.413" viewBox="0 0 53.56 71.413">
  <path id="Icon_awesome-file-upload" data-name="Icon awesome-file-upload" d="M31.243,18.969V0H3.347A3.339,3.339,0,0,0,0,3.347V68.066a3.339,3.339,0,0,0,3.347,3.347H50.212a3.339,3.339,0,0,0,3.347-3.347V22.317H34.591A3.357,3.357,0,0,1,31.243,18.969ZM40.334,49.1H31.243V60.256a2.231,2.231,0,0,1-2.232,2.232H24.548a2.231,2.231,0,0,1-2.232-2.232V49.1H13.225a2.232,2.232,0,0,1-1.572-3.816L25.1,31.934a2.378,2.378,0,0,1,3.353,0L41.9,45.282A2.231,2.231,0,0,1,40.334,49.1ZM52.583,14.645,38.928.976A3.345,3.345,0,0,0,36.557,0h-.851V17.853H53.56V17A3.337,3.337,0,0,0,52.583,14.645Z" fill="#fff"/>
</svg>
