<svg xmlns="http://www.w3.org/2000/svg" width="102.772" height="137.03" viewBox="0 0 102.772 137.03">
  <path id="Icon_awesome-file-upload" data-name="Icon awesome-file-upload" d="M59.951,36.4V0H6.423A6.408,6.408,0,0,0,0,6.423V130.607a6.408,6.408,0,0,0,6.423,6.423H96.349a6.408,6.408,0,0,0,6.423-6.423V42.822h-36.4A6.442,6.442,0,0,1,59.951,36.4ZM77.4,94.211H59.951v21.411a4.281,4.281,0,0,1-4.282,4.282H47.1a4.281,4.281,0,0,1-4.282-4.282V94.211H25.377a4.283,4.283,0,0,1-3.016-7.323L48.167,61.275a4.563,4.563,0,0,1,6.434,0L80.406,86.888A4.281,4.281,0,0,1,77.4,94.211ZM100.9,28.1,74.7,1.873A6.418,6.418,0,0,0,70.147,0H68.515V34.257h34.257V32.625A6.4,6.4,0,0,0,100.9,28.1Z" fill="#fff"/>
</svg>
