<svg xmlns="http://www.w3.org/2000/svg" width="42.233" height="31.675" viewBox="0 0 42.233 31.675">
  <path id="Icon_awesome-ad" data-name="Icon awesome-ad" d="M12.993,21.657h3.049l-1.524-4.39Zm16.042-1.32a1.98,1.98,0,1,0,1.98,1.98A1.982,1.982,0,0,0,29.035,20.337ZM38.274,4.5H3.959A3.96,3.96,0,0,0,0,8.459V32.215a3.96,3.96,0,0,0,3.959,3.959H38.274a3.96,3.96,0,0,0,3.959-3.959V8.459A3.96,3.96,0,0,0,38.274,4.5Zm-17.6,23.756h-1.4a1.322,1.322,0,0,1-1.247-.887l-.608-1.753h-5.8l-.609,1.753a1.32,1.32,0,0,1-1.247.887h-1.4A1.32,1.32,0,0,1,7.119,26.5l4.43-12.755a1.979,1.979,0,0,1,1.87-1.33h2.2a1.979,1.979,0,0,1,1.87,1.331L21.916,26.5A1.32,1.32,0,0,1,20.669,28.256Zm14.3-1.32a1.319,1.319,0,0,1-1.32,1.32h-1.32a1.3,1.3,0,0,1-.988-.469,5.954,5.954,0,1,1-.332-11.045v-3a1.319,1.319,0,0,1,1.32-1.32h1.32a1.319,1.319,0,0,1,1.32,1.32Z" transform="translate(0 -4.5)" fill="#fff"/>
</svg>
