<svg xmlns="http://www.w3.org/2000/svg" width="32.619" height="37.279" viewBox="0 0 32.619 37.279">
  <path id="Icon_awesome-address-book" data-name="Icon awesome-address-book" d="M31.745,11.65a.876.876,0,0,0,.874-.874V7.864a.876.876,0,0,0-.874-.874H30.289V3.495A3.5,3.5,0,0,0,26.794,0H3.495A3.5,3.5,0,0,0,0,3.495V33.784a3.5,3.5,0,0,0,3.495,3.495h23.3a3.5,3.5,0,0,0,3.495-3.495V30.289h1.456a.876.876,0,0,0,.874-.874V26.5a.876.876,0,0,0-.874-.874H30.289v-4.66h1.456a.876.876,0,0,0,.874-.874V17.183a.876.876,0,0,0-.874-.874H30.289V11.65Zm-16.6-2.33a4.66,4.66,0,1,1-4.66,4.66A4.664,4.664,0,0,1,15.145,9.32ZM23.3,26.561a1.527,1.527,0,0,1-1.631,1.4H8.621a1.527,1.527,0,0,1-1.631-1.4v-1.4c0-2.315,2.192-4.194,4.893-4.194h.364a7.5,7.5,0,0,0,5.8,0h.364c2.7,0,4.893,1.879,4.893,4.194Z" fill="#fff"/>
</svg>
