<svg xmlns="http://www.w3.org/2000/svg" width="240.552" height="45.029" viewBox="0 0 240.552 45.029">
  <g id="Group_3" data-name="Group 3" transform="translate(-7.016 12.037)">
    <g id="Group_2" data-name="Group 2" transform="translate(7.053 -11.808)">
      <g id="Group_1" data-name="Group 1" transform="translate(9.59 4.241)">
        <path id="Path_1" data-name="Path 1" d="M206.4,271.775v-.2a107.142,107.142,0,0,0,13-1.128v1.33Zm5.023-3.157a4,4,0,0,0,.339-1.763V233.564H206.4v-1.849h17.3l7.036,23.132,7.467-23.132h16.425v1.849h-5.208v19.824a87.4,87.4,0,0,1-9.861,5.838V234.077h-.123l-9.183,29.256q-3.239,1.232-6.633,2.269l-9.76-31.915V266.67a6.121,6.121,0,0,0,.143,1.42q-1.28.275-2.578.528Zm38-9.143a66.587,66.587,0,0,1-9.861,5.311V269.8h-5.423v1.972h20.338V269.8h-5.054V259.474Zm-20.807,9.083q-1.88.494-3.812.907l.707,2.311h2.1Z" transform="translate(-206.399 -231.715)" fill="#f36a10" fill-rule="evenodd"/>
        <path id="Path_2" data-name="Path 2" d="M374.666,271.775V269.8h4.807v-7.171a64.736,64.736,0,0,0,10.169-6.618V269.8H395.5v1.972Zm4.807-14.991a84.811,84.811,0,0,0,10.2-6.963l-.03-16.257H395.8q4.7,0,7.159,2.2.176.156.346.329,1.669-2.119,3.229-4.376H374.543v1.849h4.931v23.22Zm29.177-24.553.344,11.132h-2.1a23.047,23.047,0,0,0-1.832-4.807q1.89-3.014,3.584-6.325Zm-8.47,13.231a67.312,67.312,0,0,1-6.428,6.988,5.387,5.387,0,0,1,2.35,1.411c1.14,1.2,1.828,3.184,2.044,5.958h2.034Z" transform="translate(-341.828 -231.715)" fill="#f36a10" fill-rule="evenodd"/>
      </g>
      <path id="Path_3" data-name="Path 3" d="M239.69,177.233c-12.7,34.276-41.8,46.751-82.582,43.7C196.292,219.2,224.607,205.5,239.69,177.233Z" transform="translate(-157.108 -177.233)" fill="#f36a10" stroke="#f36a10" stroke-miterlimit="2.613" stroke-width="0.216" fill-rule="evenodd"/>
      <path id="Path_4" data-name="Path 4" d="M220.521,205.489a58.187,58.187,0,0,0,4.531-4.227,60.7,60.7,0,0,0,5.807-7.021q1.447-2.04,2.77-4.247a76.381,76.381,0,0,0,6.061-12.761,78.531,78.531,0,0,1-6.166,9.781l-.193.259c-16.066,21.507-42,32.15-76.223,33.665q4.909.367,9.59.43a125.282,125.282,0,0,0,13-.475q2.879-.262,5.651-.668,1.617-.237,3.2-.524a81.977,81.977,0,0,0,11.305-2.865q2.295-.766,4.488-1.666,2.768-1.136,5.372-2.491,2.474-1.288,4.8-2.777A58.636,58.636,0,0,0,220.521,205.489Z" transform="translate(-157.108 -177.233)" fill="#ddc6c6" stroke="#1a1818" stroke-miterlimit="2.613" stroke-width="0.5" fill-rule="evenodd"/>
      <path id="Path_5" data-name="Path 5" d="M214.513,209.917a58.654,58.654,0,0,0,6.008-4.415,4.6,4.6,0,0,1,.453.367c1.14,1.051,1.829,2.784,2.044,5.21h2.034v-9.806a60.723,60.723,0,0,0,5.807-7.024,22.462,22.462,0,0,1,.911,2.44h2.1L233.629,190a76.43,76.43,0,0,0,6.061-12.766,78.567,78.567,0,0,1-6.166,9.786l-.193.259c-16.066,21.517-42,32.164-76.223,33.679q4.909.367,9.59.43v.146h13v-.621q2.879-.262,5.651-.668l.451,1.289h2.1l.651-1.814a81.93,81.93,0,0,0,11.305-2.867v2.956h-5.424v1.725h25.936v-1.725h-5.855Z" transform="translate(-157.108 -177.233)" fill="#fff" stroke="#f36a10" stroke-miterlimit="2.613" stroke-width="0.5" fill-rule="evenodd"/>
      <path id="Path_6" data-name="Path 6" d="M157.445,220.982q4.733.344,9.253.405v.146h13v-.621q2.879-.262,5.651-.668l.451,1.289h2.1l.651-1.814a81.93,81.93,0,0,0,11.305-2.867v2.956h-5.424v1.725h25.936v-1.725h-5.855v-9.892a58.654,58.654,0,0,0,6.008-4.415,4.6,4.6,0,0,1,.453.367c1.14,1.051,1.829,2.784,2.044,5.21h2.034v-9.806a60.723,60.723,0,0,0,5.807-7.024,22.462,22.462,0,0,1,.911,2.44h2.1L233.629,190a76.43,76.43,0,0,0,6.061-12.766,73.586,73.586,0,0,1-6.159,9.972q-.39.531-.79,1.054c-15.849,20.742-41.975,31.214-75.551,32.695l-.081,0Z" transform="translate(-157.108 -177.233)" fill="#f8800b" stroke="#f8800b" stroke-width="1" fill-rule="evenodd"/>
    </g>
    <text id="MORTFUND" transform="translate(93.568 21.711)" fill="#1a1818" font-size="30" font-family="Bahnschrift"><tspan x="0" y="0">MORTFUND</tspan></text>
  </g>
</svg>
