<svg xmlns="http://www.w3.org/2000/svg" width="36" height="36" viewBox="0 0 36 36">
  <path id="Icon_awesome-donate" data-name="Icon awesome-donate" d="M18,29.25A14.625,14.625,0,1,0,3.375,14.625,14.623,14.623,0,0,0,18,29.25Zm-1.561-22.4V5.667A1.164,1.164,0,0,1,17.606,4.5h.78a1.164,1.164,0,0,1,1.167,1.167v1.2a5.543,5.543,0,0,1,3.023,1.083.788.788,0,0,1,.084,1.2l-1.146,1.09a.793.793,0,0,1-.984.07,2.314,2.314,0,0,0-1.252-.359H16.545A1.223,1.223,0,0,0,15.4,11.236a1.27,1.27,0,0,0,.851,1.238l4.38,1.315A4.4,4.4,0,0,1,23.7,18.014,4.335,4.335,0,0,1,19.547,22.4v1.181A1.164,1.164,0,0,1,18.38,24.75H17.6a1.164,1.164,0,0,1-1.167-1.167v-1.2A5.543,5.543,0,0,1,13.409,21.3a.788.788,0,0,1-.084-1.2l1.146-1.09a.793.793,0,0,1,.984-.07,2.314,2.314,0,0,0,1.252.359h2.735a1.223,1.223,0,0,0,1.146-1.287,1.27,1.27,0,0,0-.851-1.237l-4.38-1.315a4.4,4.4,0,0,1-3.073-4.226,4.34,4.34,0,0,1,4.155-4.387ZM33.75,24.75H31.465a17.041,17.041,0,0,1-5.133,4.5h4.486a.627.627,0,0,1,.675.563v1.125a.627.627,0,0,1-.675.563H5.175a.627.627,0,0,1-.675-.562V29.813a.627.627,0,0,1,.675-.562H9.661a17.126,17.126,0,0,1-5.133-4.5H2.25A2.248,2.248,0,0,0,0,27v6.75A2.248,2.248,0,0,0,2.25,36h31.5A2.248,2.248,0,0,0,36,33.75V27A2.248,2.248,0,0,0,33.75,24.75Z" fill="#fff"/>
</svg>
