<svg xmlns="http://www.w3.org/2000/svg" width="29.012" height="19.584" viewBox="0 0 29.012 19.584">
  <path id="Icon_zocial-email" data-name="Icon zocial-email" d="M.072,21.917V5.8q0-.028.084-.532L9.64,13.384.184,22.477a2.371,2.371,0,0,1-.112-.56ZM1.331,4.152a1.206,1.206,0,0,1,.476-.084H27.349a1.584,1.584,0,0,1,.5.084l-9.512,8.141L17.082,13.3l-2.49,2.042L12.1,13.3l-1.259-1.007Zm.028,19.416,9.54-9.148,3.693,2.994,3.693-2.994,9.54,9.148a1.343,1.343,0,0,1-.476.084H1.807a1.267,1.267,0,0,1-.448-.084ZM19.544,13.384,29,5.271a1.67,1.67,0,0,1,.084.532V21.917a2.144,2.144,0,0,1-.084.56Z" transform="translate(-0.072 -4.068)" fill="#fff"/>
</svg>
