<svg xmlns="http://www.w3.org/2000/svg" width="36.028" height="36.038" viewBox="0 0 36.028 36.038">
  <path id="Icon_ionic-ios-settings" data-name="Icon ionic-ios-settings" d="M37.554,22.514a4.636,4.636,0,0,1,2.974-4.325A18.377,18.377,0,0,0,38.3,12.832a4.7,4.7,0,0,1-1.886.4,4.626,4.626,0,0,1-4.231-6.511A18.321,18.321,0,0,0,26.839,4.5a4.632,4.632,0,0,1-8.651,0,18.377,18.377,0,0,0-5.357,2.224A4.626,4.626,0,0,1,8.6,13.235a4.545,4.545,0,0,1-1.886-.4A18.783,18.783,0,0,0,4.5,18.2a4.635,4.635,0,0,1,.009,8.651,18.377,18.377,0,0,0,2.224,5.357,4.628,4.628,0,0,1,6.108,6.108A18.484,18.484,0,0,0,18.2,40.538a4.624,4.624,0,0,1,8.632,0,18.377,18.377,0,0,0,5.357-2.224A4.632,4.632,0,0,1,38.3,32.206a18.484,18.484,0,0,0,2.224-5.357A4.658,4.658,0,0,1,37.554,22.514ZM22.6,30.011A7.506,7.506,0,1,1,30.1,22.5,7.5,7.5,0,0,1,22.6,30.011Z" transform="translate(-4.5 -4.5)" fill="#fff"/>
</svg>
