<svg xmlns="http://www.w3.org/2000/svg" width="37.517" height="37.517" viewBox="0 0 37.517 37.517">
  <path id="Icon_material-language" data-name="Icon material-language" d="M21.74,3A18.759,18.759,0,1,0,40.517,21.759,18.749,18.749,0,0,0,21.74,3Zm13,11.255H29.206a29.355,29.355,0,0,0-2.589-6.678A15.062,15.062,0,0,1,34.739,14.255ZM21.759,6.827a26.425,26.425,0,0,1,3.583,7.428H18.176A26.425,26.425,0,0,1,21.759,6.827ZM7.239,25.51a14.674,14.674,0,0,1,0-7.5h6.34a30.98,30.98,0,0,0-.263,3.752,30.98,30.98,0,0,0,.263,3.752Zm1.538,3.752h5.534A29.356,29.356,0,0,0,16.9,35.94,14.982,14.982,0,0,1,8.778,29.262Zm5.534-15.007H8.778A14.982,14.982,0,0,1,16.9,7.577,29.355,29.355,0,0,0,14.311,14.255ZM21.759,36.69a26.425,26.425,0,0,1-3.583-7.428h7.166A26.425,26.425,0,0,1,21.759,36.69Zm4.39-11.18H17.369a27.6,27.6,0,0,1-.3-3.752,27.359,27.359,0,0,1,.3-3.752h8.779a27.359,27.359,0,0,1,.3,3.752A27.6,27.6,0,0,1,26.148,25.51Zm.469,10.43a29.356,29.356,0,0,0,2.589-6.678h5.534a15.062,15.062,0,0,1-8.122,6.678Zm3.32-10.43a30.98,30.98,0,0,0,.263-3.752,30.981,30.981,0,0,0-.263-3.752h6.34a14.674,14.674,0,0,1,0,7.5Z" transform="translate(-3 -3)" fill="#fff"/>
</svg>
