<svg xmlns="http://www.w3.org/2000/svg" width="39.381" height="30.154" viewBox="0 0 39.381 30.154">
  <path id="Icon_awesome-sign-in-alt" data-name="Icon awesome-sign-in-alt" d="M32,34.036H25.536a.926.926,0,0,1-.923-.923V30.036a.926.926,0,0,1,.923-.923H32a2.459,2.459,0,0,0,2.461-2.461V11.884A2.459,2.459,0,0,0,32,9.423H25.536a.926.926,0,0,1-.923-.923V5.423a.926.926,0,0,1,.923-.923H32a7.386,7.386,0,0,1,7.384,7.384V26.652A7.386,7.386,0,0,1,32,34.036Zm-3.615-15.46L15.46,5.654a1.849,1.849,0,0,0-3.154,1.308v7.384H1.846A1.842,1.842,0,0,0,0,16.191v7.384a1.842,1.842,0,0,0,1.846,1.846H12.307V32.8a1.849,1.849,0,0,0,3.154,1.308L28.382,21.191A1.862,1.862,0,0,0,28.382,18.576Z" transform="translate(0 -4.5)" fill="#fff"/>
</svg>
