<svg xmlns="http://www.w3.org/2000/svg" width="413.117" height="70.409" viewBox="0 0 413.117 70.409">
  <g id="Group_3" data-name="Group 3" transform="translate(-7.016 12.037)">
    <g id="Group_2" data-name="Group 2" transform="translate(7.053 -11.808)">
      <g id="Group_1" data-name="Group 1" transform="translate(15.085 6.671)">
        <path id="Path_1" data-name="Path 1" d="M206.4,294.725v-.318a168.5,168.5,0,0,0,20.454-1.775v2.093Zm7.9-4.966a6.283,6.283,0,0,0,.533-2.773V234.623H206.4v-2.908h27.208L244.674,268.1l11.746-36.384h25.834v2.908h-8.191V265.8a137.461,137.461,0,0,1-15.51,9.182V235.431h-.194l-14.445,46.017q-5.1,1.938-10.433,3.569l-15.352-50.2V286.7a9.627,9.627,0,0,0,.225,2.233q-2.014.433-4.055.831Zm59.763-14.382a104.735,104.735,0,0,1-15.51,8.353v7.892h-8.531v3.1h31.99v-3.1h-7.949V275.378Zm-32.728,14.286q-2.957.776-6,1.427l1.112,3.634h3.3Z" transform="translate(-206.399 -231.715)" fill="#f36a10" fill-rule="evenodd"/>
        <path id="Path_2" data-name="Path 2" d="M374.737,294.725v-3.1H382.3v-11.28a101.824,101.824,0,0,0,15.995-10.41v21.69H407.5v3.1Zm7.561-23.579a133.386,133.386,0,0,0,16.043-10.953l-.048-25.571h9.678q7.392,0,11.261,3.458.277.245.545.517,2.625-3.334,5.079-6.882H374.543v2.908H382.3v36.524Zm45.893-38.62.541,17.51h-3.3a36.243,36.243,0,0,0-2.882-7.561q2.972-4.74,5.637-9.949Zm-13.322,20.81a105.853,105.853,0,0,1-10.111,10.992,8.473,8.473,0,0,1,3.7,2.219c1.793,1.89,2.876,5.009,3.215,9.371h3.2Z" transform="translate(-323.085 -231.715)" fill="#f36a10" fill-rule="evenodd"/>
      </g>
      <path id="Path_3" data-name="Path 3" d="M287,177.233c-19.97,53.912-65.745,73.535-129.893,68.744C218.74,243.25,263.278,221.7,287,177.233Z" transform="translate(-157.108 -177.233)" fill="#f36a10" stroke="#f36a10" stroke-miterlimit="2.613" stroke-width="0.216" fill-rule="evenodd"/>
      <path id="Path_4" data-name="Path 4" d="M256.85,221.677a91.522,91.522,0,0,0,7.127-6.649,95.475,95.475,0,0,0,9.134-11.044q2.277-3.21,4.357-6.681A120.135,120.135,0,0,0,287,177.233a123.524,123.524,0,0,1-9.7,15.385l-.3.407c-25.271,33.829-66.061,50.57-119.892,52.951q7.722.577,15.085.677a197.04,197.04,0,0,0,20.454-.747q4.529-.412,8.888-1.05,2.544-.373,5.029-.824a128.928,128.928,0,0,0,17.782-4.507q3.609-1.2,7.06-2.62,4.354-1.787,8.45-3.918,3.891-2.026,7.545-4.368A92.236,92.236,0,0,0,256.85,221.677Z" transform="translate(-157.108 -177.233)" fill="#ddc6c6" stroke="#1a1818" stroke-miterlimit="2.613" stroke-width="0.5" fill-rule="evenodd"/>
      <path id="Path_5" data-name="Path 5" d="M247.4,228.641a92.246,92.246,0,0,0,9.449-6.945,7.244,7.244,0,0,1,.713.577c1.793,1.653,2.876,4.38,3.215,8.194h3.2V215.045A95.511,95.511,0,0,0,273.111,204a35.343,35.343,0,0,1,1.433,3.838h3.3l-.372-10.522A120.212,120.212,0,0,0,287,177.233a123.583,123.583,0,0,1-9.7,15.392l-.3.408c-25.271,33.844-66.061,50.592-119.892,52.974q7.722.577,15.085.677v.23h20.454v-.977q4.529-.412,8.888-1.051l.709,2.028h3.3l1.024-2.852a128.872,128.872,0,0,0,17.782-4.509V244.2h-8.531v2.712H256.61V244.2H247.4Z" transform="translate(-157.108 -177.233)" fill="#fff" stroke="#f36a10" stroke-miterlimit="2.613" stroke-width="0.5" fill-rule="evenodd"/>
      <path id="Path_6" data-name="Path 6" d="M157.639,246.046q7.444.541,14.554.638v.23h20.454v-.977q4.529-.412,8.888-1.051l.709,2.028h3.3l1.024-2.852a128.872,128.872,0,0,0,17.782-4.509V244.2h-8.531v2.712H256.61V244.2H247.4v-15.56a92.246,92.246,0,0,0,9.449-6.945,7.244,7.244,0,0,1,.713.577c1.793,1.653,2.876,4.38,3.215,8.194h3.2V215.045A95.511,95.511,0,0,0,273.111,204a35.343,35.343,0,0,1,1.433,3.838h3.3l-.372-10.522A120.212,120.212,0,0,0,287,177.233a115.762,115.762,0,0,1-9.688,15.685q-.614.836-1.242,1.658C251.141,227.2,210.048,243.671,157.236,246l-.128.006Z" transform="translate(-157.108 -177.233)" fill="#f8800b" stroke="#f8800b" stroke-width="1" fill-rule="evenodd"/>
    </g>
    <text id="MORTFUND" transform="translate(143.133 46.164)" fill="#fff" font-size="54" font-family="Bahnschrift"><tspan x="0" y="0">MORTFUND</tspan></text>
  </g>
</svg>
