<svg xmlns="http://www.w3.org/2000/svg" width="44.94" height="33.705" viewBox="0 0 44.94 33.705">
  <path id="Icon_awesome-image" data-name="Icon awesome-image" d="M40.727,38.205H4.213A4.213,4.213,0,0,1,0,33.992V8.713A4.213,4.213,0,0,1,4.213,4.5H40.727A4.213,4.213,0,0,1,44.94,8.713V33.992A4.213,4.213,0,0,1,40.727,38.205ZM9.831,9.415a4.915,4.915,0,1,0,4.915,4.915A4.915,4.915,0,0,0,9.831,9.415ZM5.618,32.588H39.323V22.757l-7.682-7.682a1.053,1.053,0,0,0-1.49,0L18.257,26.97,13.384,22.1a1.053,1.053,0,0,0-1.49,0L5.618,28.375Z" transform="translate(0 -4.5)" fill="#fff"/>
</svg>
