<svg xmlns="http://www.w3.org/2000/svg" width="27" height="31.5" viewBox="0 0 27 31.5">
  <g id="logout" transform="translate(-4.5 -2.25)">
    <path id="Path_10" data-name="Path 10" d="M6.75,33.75h13.5A2.252,2.252,0,0,0,22.5,31.5V28.125H20.25V31.5H6.75V4.5h13.5V7.875H22.5V4.5a2.252,2.252,0,0,0-2.25-2.25H6.75A2.252,2.252,0,0,0,4.5,4.5v27a2.252,2.252,0,0,0,2.25,2.25Z"/>
    <path id="Path_11" data-name="Path 11" d="M23.159,23.159l4.035-4.034H11.25v-2.25H27.194L23.16,12.841l1.59-1.591L31.5,18l-6.75,6.75Z"/>
  </g>
</svg>
