<svg xmlns="http://www.w3.org/2000/svg" width="44.843" height="31.39" viewBox="0 0 44.843 31.39">
  <path id="Icon_awesome-users" data-name="Icon awesome-users" d="M6.726,15.7a4.484,4.484,0,1,0-4.484-4.484A4.488,4.488,0,0,0,6.726,15.7Zm31.39,0a4.484,4.484,0,1,0-4.484-4.484A4.488,4.488,0,0,0,38.116,15.7Zm2.242,2.242H35.874a4.471,4.471,0,0,0-3.16,1.3,10.249,10.249,0,0,1,5.262,7.665H42.6a2.24,2.24,0,0,0,2.242-2.242V22.429A4.488,4.488,0,0,0,40.359,17.945Zm-17.937,0A7.848,7.848,0,1,0,14.574,10.1,7.844,7.844,0,0,0,22.421,17.945ZM27.8,20.187h-.582a10.835,10.835,0,0,1-9.6,0H17.04a8.074,8.074,0,0,0-8.072,8.072v2.018a3.364,3.364,0,0,0,3.363,3.363H32.511a3.364,3.364,0,0,0,3.363-3.363V28.259A8.074,8.074,0,0,0,27.8,20.187Zm-15.674-.939a4.471,4.471,0,0,0-3.16-1.3H4.484A4.488,4.488,0,0,0,0,22.429v2.242a2.24,2.24,0,0,0,2.242,2.242H6.86A10.275,10.275,0,0,1,12.129,19.248Z" transform="translate(0 -2.25)" fill="#fff"/>
</svg>
