<svg xmlns="http://www.w3.org/2000/svg" width="68.057" height="68.057" viewBox="0 0 68.057 68.057">
  <path id="Icon_awesome-spinner" data-name="Icon awesome-spinner" d="M40.409,6.38A6.38,6.38,0,1,1,34.029,0,6.38,6.38,0,0,1,40.409,6.38ZM34.029,55.3a6.38,6.38,0,1,0,6.38,6.38A6.38,6.38,0,0,0,34.029,55.3ZM61.677,27.648a6.38,6.38,0,1,0,6.38,6.38A6.38,6.38,0,0,0,61.677,27.648Zm-48.916,6.38a6.38,6.38,0,1,0-6.38,6.38A6.38,6.38,0,0,0,12.761,34.029ZM14.478,47.2a6.38,6.38,0,1,0,6.38,6.38A6.38,6.38,0,0,0,14.478,47.2Zm39.1,0a6.38,6.38,0,1,0,6.38,6.38A6.38,6.38,0,0,0,53.579,47.2ZM14.478,8.1a6.38,6.38,0,1,0,6.38,6.38A6.38,6.38,0,0,0,14.478,8.1Z" fill="#fff"/>
</svg>
