<svg xmlns="http://www.w3.org/2000/svg" width="50.446" height="50.446" viewBox="0 0 50.446 50.446">
  <path id="Icon_awesome-pause" data-name="Icon awesome-pause" d="M16.215,52.625H5.4a5.406,5.406,0,0,1-5.4-5.4V7.585a5.406,5.406,0,0,1,5.4-5.4h10.81a5.406,5.406,0,0,1,5.4,5.4V47.221A5.406,5.406,0,0,1,16.215,52.625Zm34.231-5.4V7.585a5.406,5.406,0,0,0-5.4-5.4H34.231a5.406,5.406,0,0,0-5.4,5.4V47.221a5.406,5.406,0,0,0,5.4,5.4h10.81A5.406,5.406,0,0,0,50.446,47.221Z" transform="translate(0 -2.18)" fill="#fff"/>
</svg>
