<svg xmlns="http://www.w3.org/2000/svg" width="30.84" height="40.093" viewBox="0 0 30.84 40.093">
  <path id="Icon_ionic-ios-lock" data-name="Icon ionic-ios-lock" d="M33.735,17.253H31.422v-4.5a9.253,9.253,0,1,0-18.5-.125v4.626H10.605A3.866,3.866,0,0,0,6.75,21.108v18.5a3.866,3.866,0,0,0,3.855,3.855h23.13a3.866,3.866,0,0,0,3.855-3.855v-18.5A3.866,3.866,0,0,0,33.735,17.253ZM23.519,29.281v6.631A1.382,1.382,0,0,1,22.238,37.3a1.351,1.351,0,0,1-1.417-1.349V29.281a3.084,3.084,0,1,1,2.7,0Zm5.2-12.028H15.617V12.627a6.554,6.554,0,0,1,13.107,0Z" transform="translate(-6.75 -3.374)" fill="#fff"/>
</svg>
