<svg xmlns="http://www.w3.org/2000/svg" width="32.164" height="25.734" viewBox="0 0 32.164 25.734">
  <path id="Icon_awesome-user-times" data-name="Icon awesome-user-times" d="M29.635,12.063l2.292-2.292a.81.81,0,0,0,0-1.146L30.781,7.479a.81.81,0,0,0-1.146,0L27.343,9.771,25.051,7.479a.81.81,0,0,0-1.146,0L22.759,8.625a.81.81,0,0,0,0,1.146l2.292,2.292-2.292,2.292a.81.81,0,0,0,0,1.146L23.9,16.647a.81.81,0,0,0,1.146,0l2.292-2.292,2.292,2.292a.81.81,0,0,0,1.146,0L31.927,15.5a.81.81,0,0,0,0-1.146Zm-18.376.8A6.434,6.434,0,1,0,4.825,6.434,6.433,6.433,0,0,0,11.259,12.867Zm4.5,1.608h-.839a8.749,8.749,0,0,1-7.328,0H6.755A6.757,6.757,0,0,0,0,21.231v2.091a2.413,2.413,0,0,0,2.413,2.413H20.1a2.413,2.413,0,0,0,2.413-2.413V21.231A6.757,6.757,0,0,0,15.762,14.476Z" fill="#fff"/>
</svg>
