<svg xmlns="http://www.w3.org/2000/svg" width="28.781" height="23.025" viewBox="0 0 28.781 23.025">
  <path id="Icon_awesome-user-check" data-name="Icon awesome-user-check" d="M10.073,11.512A5.756,5.756,0,1,0,4.317,5.756,5.756,5.756,0,0,0,10.073,11.512ZM14.1,12.951h-.751a7.828,7.828,0,0,1-6.557,0H6.044A6.046,6.046,0,0,0,0,19v1.871a2.159,2.159,0,0,0,2.159,2.159H17.988a2.159,2.159,0,0,0,2.159-2.159V19A6.046,6.046,0,0,0,14.1,12.951ZM28.628,7.177l-1.25-1.264a.533.533,0,0,0-.755,0l-4.713,4.677-2.046-2.06a.533.533,0,0,0-.755,0L17.844,9.776a.533.533,0,0,0,0,.755l3.674,3.7a.533.533,0,0,0,.755,0l6.354-6.3a.537.537,0,0,0,0-.755Z" fill="#fff"/>
</svg>
