<svg xmlns="http://www.w3.org/2000/svg" width="53.45" height="71.266" viewBox="0 0 53.45 71.266">
  <path id="Icon_awesome-clipboard-check" data-name="Icon awesome-clipboard-check" d="M46.768,8.908H35.633a8.908,8.908,0,0,0-17.817,0H6.681A6.683,6.683,0,0,0,0,15.589v49a6.683,6.683,0,0,0,6.681,6.681H46.768a6.683,6.683,0,0,0,6.681-6.681v-49A6.683,6.683,0,0,0,46.768,8.908ZM26.725,5.568a3.341,3.341,0,1,1-3.341,3.341A3.333,3.333,0,0,1,26.725,5.568Zm16.87,32.265L23.69,57.57a1.672,1.672,0,0,1-2.366-.014L9.827,45.961a1.672,1.672,0,0,1,.014-2.366l3.953-3.925a1.672,1.672,0,0,1,2.366.014l6.4,6.458L37.317,31.5a1.672,1.672,0,0,1,2.366.014l3.925,3.953A1.672,1.672,0,0,1,43.595,37.832Z" fill="#fff"/>
</svg>
