<svg xmlns="http://www.w3.org/2000/svg" width="33.894" height="45.192" viewBox="0 0 33.894 45.192">
  <path id="Icon_awesome-clipboard-check" data-name="Icon awesome-clipboard-check" d="M29.657,5.649H22.6a5.649,5.649,0,0,0-11.3,0H4.237A4.238,4.238,0,0,0,0,9.886v31.07a4.238,4.238,0,0,0,4.237,4.237H29.657a4.238,4.238,0,0,0,4.237-4.237V9.886A4.238,4.238,0,0,0,29.657,5.649ZM16.947,3.531a2.118,2.118,0,1,1-2.118,2.118A2.113,2.113,0,0,1,16.947,3.531Zm10.7,20.46L15.023,36.507a1.06,1.06,0,0,1-1.5-.009L6.232,29.146a1.06,1.06,0,0,1,.009-1.5l2.507-2.489a1.06,1.06,0,0,1,1.5.009l4.06,4.1,9.356-9.286a1.06,1.06,0,0,1,1.5.009l2.489,2.507A1.06,1.06,0,0,1,27.645,23.991Z" fill="#fff"/>
</svg>
