<svg xmlns="http://www.w3.org/2000/svg" width="33.116" height="37.847" viewBox="0 0 33.116 37.847">
  <path id="Icon_metro-file-text" data-name="Icon metro-file-text" d="M36.056,10.395A33.518,33.518,0,0,0,32.834,6.71a33.521,33.521,0,0,0-3.685-3.222c-1.906-1.4-2.831-1.56-3.361-1.56H7.456A2.96,2.96,0,0,0,4.5,4.885V36.819a2.96,2.96,0,0,0,2.957,2.957h27.2a2.96,2.96,0,0,0,2.957-2.957V13.755c0-.53-.162-1.454-1.56-3.361ZM31.161,8.382a32.26,32.26,0,0,1,2.683,3.008h-5.69V5.7a32.228,32.228,0,0,1,3.008,2.682ZM35.25,36.819a.6.6,0,0,1-.591.591H7.456a.6.6,0,0,1-.591-.591V4.885a.6.6,0,0,1,.591-.591H25.788v8.279a1.183,1.183,0,0,0,1.183,1.183H35.25Zm-5.914-4.14H12.778a1.183,1.183,0,0,1,0-2.365H29.336a1.183,1.183,0,1,1,0,2.365Zm0-4.731H12.778a1.183,1.183,0,1,1,0-2.365H29.336a1.183,1.183,0,1,1,0,2.365Zm0-4.731H12.778a1.183,1.183,0,0,1,0-2.365H29.336a1.183,1.183,0,0,1,0,2.365Z" transform="translate(-4.499 -1.928)" fill="#fff"/>
</svg>
