<svg xmlns="http://www.w3.org/2000/svg" width="42.75" height="28.362" viewBox="0 0 42.75 28.362">
  <g id="Group_337" data-name="Group 337" transform="translate(-411.336 -492.937)">
    <path id="Icon_awesome-quote-left" data-name="Icon awesome-quote-left" d="M13.365,8.7h-2.3V6.859A1.845,1.845,0,0,1,12.9,5.015h.23a.69.69,0,0,0,.691-.691V2.941a.69.69,0,0,0-.691-.691H12.9A4.607,4.607,0,0,0,8.3,6.859v6.913a1.383,1.383,0,0,0,1.383,1.383h3.687a1.383,1.383,0,0,0,1.383-1.383V10.085A1.383,1.383,0,0,0,13.365,8.7Zm-8.3,0h-2.3V6.859A1.845,1.845,0,0,1,4.609,5.015h.23a.69.69,0,0,0,.691-.691V2.941a.69.69,0,0,0-.691-.691h-.23A4.607,4.607,0,0,0,0,6.859v6.913a1.383,1.383,0,0,0,1.383,1.383H5.07a1.383,1.383,0,0,0,1.383-1.383V10.085A1.383,1.383,0,0,0,5.07,8.7Z" transform="translate(411.336 490.687)" fill="#fff"/>
    <path id="Icon_awesome-quote-right" data-name="Icon awesome-quote-right" d="M13.365,2.25H9.678A1.383,1.383,0,0,0,8.3,3.633V7.32A1.383,1.383,0,0,0,9.678,8.7h2.3v1.843a1.845,1.845,0,0,1-1.843,1.843h-.23a.69.69,0,0,0-.691.691v1.383a.69.69,0,0,0,.691.691h.23a4.607,4.607,0,0,0,4.609-4.609V3.633A1.383,1.383,0,0,0,13.365,2.25Zm-8.3,0H1.383A1.383,1.383,0,0,0,0,3.633V7.32A1.383,1.383,0,0,0,1.383,8.7h2.3v1.843a1.845,1.845,0,0,1-1.843,1.843h-.23a.69.69,0,0,0-.691.691v1.383a.69.69,0,0,0,.691.691h.23a4.607,4.607,0,0,0,4.609-4.609V3.633A1.383,1.383,0,0,0,5.07,2.25Z" transform="translate(439.338 506.145)" fill="#fff"/>
  </g>
</svg>
