<svg xmlns="http://www.w3.org/2000/svg" width="30.849" height="30.849" viewBox="0 0 30.849 30.849">
  <path id="Icon_metro-cogs" data-name="Icon metro-cogs" d="M13.528,23.68l1.244-1.742-1.363-1.363-1.742,1.244a4.791,4.791,0,0,0-1.032-.428l-.352-2.111H8.355L8,21.392a4.791,4.791,0,0,0-1.032.428L5.229,20.575,3.866,21.938,5.11,23.68a4.791,4.791,0,0,0-.428,1.032l-2.111.352v1.928l2.111.352a4.793,4.793,0,0,0,.428,1.032L3.865,30.118l1.363,1.363,1.742-1.244A4.791,4.791,0,0,0,8,30.665l.352,2.111h1.928l.352-2.111a4.791,4.791,0,0,0,1.032-.428l1.742,1.244,1.363-1.363-1.244-1.742a4.792,4.792,0,0,0,.428-1.032l2.111-.352V25.064l-2.111-.352a4.793,4.793,0,0,0-.428-1.032ZM9.319,27.956a1.928,1.928,0,1,1,1.928-1.928A1.928,1.928,0,0,1,9.319,27.956Zm24.1-14.46V11.568l-2.03-.369q-.056-.361-.142-.717l1.734-1.118-.738-1.781-2.017.436q-.19-.312-.406-.606L31,5.716,29.632,4.352l-1.7,1.175q-.295-.216-.606-.407L27.764,3.1l-1.781-.738L24.865,4.1q-.355-.086-.717-.142l-.369-2.03H21.851l-.369,2.03q-.361.056-.717.142L19.648,2.366,17.866,3.1,18.3,5.121q-.312.19-.606.407L16,4.352,14.635,5.716l1.175,1.7q-.216.295-.407.606l-2.017-.436-.738,1.781,1.734,1.118q-.086.355-.142.717l-2.03.369V13.5l2.03.369q.056.361.142.717L12.649,15.7l.738,1.781,2.017-.436q.19.312.407.606l-1.175,1.7L16,20.712l1.7-1.175q.295.216.606.406l-.436,2.017,1.781.738,1.118-1.734q.355.086.717.142l.369,2.03h1.928l.369-2.03q.361-.056.717-.142L25.983,22.7l1.781-.738-.436-2.017q.312-.19.606-.406l1.7,1.175L31,19.349l-1.175-1.7q.216-.295.406-.606l2.017.436.738-1.781-1.734-1.118q.086-.355.142-.717l2.03-.369Zm-10.6,3.229a4.193,4.193,0,1,1,4.193-4.193A4.193,4.193,0,0,1,22.815,16.726Z" transform="translate(-2.571 -1.928)" fill="#fff"/>
</svg>
