<svg xmlns="http://www.w3.org/2000/svg" width="53.298" height="54.683" viewBox="0 0 53.298 54.683">
  <path id="Icon_awesome-arrow-down" data-name="Icon awesome-arrow-down" d="M50.125,25.5l2.709,2.709a2.917,2.917,0,0,1,0,4.137L29.121,56.073a2.917,2.917,0,0,1-4.137,0L1.258,32.347a2.917,2.917,0,0,1,0-4.137L3.967,25.5a2.932,2.932,0,0,1,4.186.049L22.164,40.256V5.179A2.922,2.922,0,0,1,25.094,2.25H29a2.922,2.922,0,0,1,2.929,2.929V40.256L45.939,25.549a2.911,2.911,0,0,1,4.186-.049Z" transform="translate(-0.397 -2.25)" fill="#fff"/>
</svg>
