<svg xmlns="http://www.w3.org/2000/svg" width="62.931" height="51.132" viewBox="0 0 62.931 51.132">
  <path id="Icon_awesome-list" data-name="Icon awesome-list" d="M9.833,42.707H1.967A1.967,1.967,0,0,0,0,44.674V52.54a1.967,1.967,0,0,0,1.967,1.967H9.833A1.967,1.967,0,0,0,11.8,52.54V44.674A1.967,1.967,0,0,0,9.833,42.707Zm0-39.332H1.967A1.967,1.967,0,0,0,0,5.342v7.866a1.967,1.967,0,0,0,1.967,1.967H9.833A1.967,1.967,0,0,0,11.8,13.208V5.342A1.967,1.967,0,0,0,9.833,3.375Zm0,19.666H1.967A1.967,1.967,0,0,0,0,25.008v7.866a1.967,1.967,0,0,0,1.967,1.967H9.833A1.967,1.967,0,0,0,11.8,32.874V25.008A1.967,1.967,0,0,0,9.833,23.041ZM60.965,44.674H21.633a1.967,1.967,0,0,0-1.967,1.967v3.933a1.967,1.967,0,0,0,1.967,1.967H60.965a1.967,1.967,0,0,0,1.967-1.967V46.64A1.967,1.967,0,0,0,60.965,44.674Zm0-39.332H21.633a1.967,1.967,0,0,0-1.967,1.967v3.933a1.967,1.967,0,0,0,1.967,1.967H60.965a1.967,1.967,0,0,0,1.967-1.967V7.308A1.967,1.967,0,0,0,60.965,5.342Zm0,19.666H21.633a1.967,1.967,0,0,0-1.967,1.967v3.933a1.967,1.967,0,0,0,1.967,1.967H60.965a1.967,1.967,0,0,0,1.967-1.967V26.974A1.967,1.967,0,0,0,60.965,25.008Z" transform="translate(0 -3.375)" fill="#fff"/>
</svg>
